<svg width="128" height="14" viewBox="0 0 128 14" fill="none" xmlns="http://www.w3.org/2000/svg">
<path d="M0.479024 13L6.13102 0.309999H7.73302L13.475 13H11.549L9.98302 9.4L10.775 9.904H3.08902L3.93502 9.4L2.36902 13H0.479024ZM6.90502 2.362L4.16902 8.824L3.73702 8.41H10.127L9.76702 8.824L6.97702 2.362H6.90502ZM22.7124 13V0.309999H28.0764C29.4324 0.309999 30.4824 0.633999 31.2264 1.282C31.9704 1.918 32.3424 2.812 32.3424 3.964C32.3424 4.72 32.1744 5.368 31.8384 5.908C31.5024 6.448 31.0284 6.862 30.4164 7.15C29.8044 7.426 29.0844 7.564 28.2564 7.564L28.5444 7.276H29.0304C29.5224 7.276 29.9604 7.402 30.3444 7.654C30.7404 7.906 31.0644 8.308 31.3164 8.86L33.1344 13H31.0824L29.2824 8.842C29.1024 8.35 28.8204 8.032 28.4364 7.888C28.0644 7.744 27.6024 7.672 27.0504 7.672H24.5844V13H22.7124ZM24.5844 6.25H27.7704C28.6704 6.25 29.3484 6.058 29.8044 5.674C30.2724 5.29 30.5064 4.738 30.5064 4.018C30.5064 3.286 30.2724 2.734 29.8044 2.362C29.3484 1.99 28.6704 1.804 27.7704 1.804H24.5844V6.25ZM41.2982 13L46.9502 0.309999H48.5522L54.2942 13H52.3682L50.8022 9.4L51.5942 9.904H43.9082L44.7542 9.4L43.1882 13H41.2982ZM47.7242 2.362L44.9882 8.824L44.5562 8.41H50.9462L50.5862 8.824L47.7962 2.362H47.7242ZM80.9098 13.162C79.6138 13.162 78.5098 12.898 77.5978 12.37C76.6858 11.842 75.9838 11.092 75.4918 10.12C75.0118 9.136 74.7718 7.978 74.7718 6.646C74.7718 5.314 75.0118 4.162 75.4918 3.19C75.9838 2.218 76.6858 1.468 77.5978 0.94C78.5098 0.411999 79.6138 0.147999 80.9098 0.147999C81.8098 0.147999 82.6138 0.279999 83.3218 0.543999C84.0298 0.808 84.6478 1.192 85.1758 1.696L84.5278 3.19C83.9518 2.698 83.3878 2.344 82.8358 2.128C82.2958 1.912 81.6658 1.804 80.9458 1.804C79.5778 1.804 78.5338 2.224 77.8138 3.064C77.0938 3.904 76.7338 5.098 76.7338 6.646C76.7338 8.194 77.0938 9.394 77.8138 10.246C78.5338 11.086 79.5778 11.506 80.9458 11.506C81.6658 11.506 82.2958 11.398 82.8358 11.182C83.3878 10.966 83.9518 10.606 84.5278 10.102L85.1758 11.596C84.6478 12.1 84.0298 12.49 83.3218 12.766C82.6138 13.03 81.8098 13.162 80.9098 13.162ZM95.0861 13V0.309999H96.9581V5.782H104.086V0.309999H105.958V13H104.086V7.348H96.9581V13H95.0861ZM116.066 6.646C116.066 5.314 116.3 4.162 116.768 3.19C117.236 2.218 117.914 1.468 118.802 0.94C119.702 0.411999 120.77 0.147999 122.006 0.147999C123.23 0.147999 124.286 0.411999 125.174 0.94C126.062 1.468 126.746 2.218 127.226 3.19C127.718 4.162 127.964 5.308 127.964 6.628C127.964 7.96 127.718 9.118 127.226 10.102C126.746 11.074 126.056 11.83 125.156 12.37C124.268 12.898 123.218 13.162 122.006 13.162C120.77 13.162 119.708 12.898 118.82 12.37C117.932 11.83 117.248 11.074 116.768 10.102C116.3 9.118 116.066 7.966 116.066 6.646ZM118.028 6.646C118.028 8.182 118.364 9.382 119.036 10.246C119.708 11.11 120.698 11.542 122.006 11.542C123.278 11.542 124.262 11.116 124.958 10.264C125.654 9.4 126.002 8.194 126.002 6.646C126.002 5.098 125.654 3.898 124.958 3.046C124.274 2.194 123.29 1.768 122.006 1.768C120.698 1.768 119.708 2.194 119.036 3.046C118.364 3.898 118.028 5.098 118.028 6.646Z" fill="#151614"/>
</svg>
